<svg xmlns="http://www.w3.org/2000/svg" version="1.1" xmlns:xlink="http://www.w3.org/1999/xlink" xmlns:svgjs="http://svgjs.dev/svgjs" viewBox="0 0 1920 1080"><rect width="1920" height="1080" fill="#84bd92"></rect><g transform="matrix(0.5750000000000001,0.9959292143521044,-0.9959292143521044,0.5750000000000001,928.2069858636617,-685.3610686760744)"><path d="M0,-1080C4.437477617053271,-977.8682367665328,14.250567512573019,-670.3144347687197,26.624865702319624,-467.20942059919696C38.99916389206623,-264.1044064296742,92.28209866820677,-96.15527840680915,74.24578913847964,138.63008501713654C56.2094796087525,373.4154484410822,-69.53819871987471,723.5575721218609,-81.59299147604318,941.502759944477C-93.64778423221165,1159.4479477670932,-11.681799311205074,1243.218338610246,1.9170326014687902,1446.3012119528332C15.515864514142654,1649.3840852954204,0.3195054335781317,2041.050201992139,0,2160L 1920 2160 L 1920 -1080 Z" fill="url(&quot;#SvgjsLinearGradient1140&quot;)"></path><path d="M480,-1080C473.5062996472175,-975.4680501834328,446.12184575672654,-638.7953842150076,441.0377978833047,-452.8083011005963C435.9537500098828,-266.82121798618493,451.8873312778825,-118.84884998185345,449.4957127594689,35.922498686468145C447.10409424105535,190.69384735478974,424.07432039469126,301.35007941028846,426.6880867728232,475.81979090933334C429.3018531509552,650.2895024083782,461.9165640120645,899.8737368532824,465.1783110282608,1082.7407676807372C468.4400580444571,1265.607798508192,443.788287374711,1393.4787704875187,446.2585688700009,1573.0219758740625C448.7288503652908,1752.5651812606063,474.37642814500015,2062.1703293123437,480,2160L 1920 2160 L 1920 -1080 Z" fill="url(&quot;#SvgjsLinearGradient1141&quot;)"></path><path d="M960,-1080C970.0983035713741,-1004.5533616102873,1026.4790131144985,-821.7352586257786,1020.5898214282449,-627.3201696617242C1014.7006297419913,-432.90508069766986,944.7651745877947,-96.77421757304708,924.6648498824783,86.4905337843258C904.5645251771618,269.75528514169866,889.7144144967452,294.71531132457176,899.9878731963462,472.2683384825131C910.2613318959471,649.8213656404545,973.4376596724301,946.8064210156886,986.3056020800839,1151.808696731974C999.1735444877377,1356.8109724482592,981.5797946556166,1534.2501089022207,977.1955276422693,1702.2819927802252C972.811260628922,1870.3138766582297,962.8659212737116,2083.713665463371,960,2160L 1920 2160 L 1920 -1080 Z" fill="url(&quot;#SvgjsLinearGradient1142&quot;)"></path><path d="M1440,-1080C1439.2629193954792,-957.4948845653977,1420.5933855535932,-558.0220450773081,1435.5775163728754,-344.9693073923862C1450.5616471921576,-131.9165697074643,1535.7230536094905,-18.27114752824619,1529.9047849156932,198.31642610953142C1524.0865162218959,414.90399974730906,1413.1450340393053,736.0136170157609,1400.6679042100911,954.5561344342794C1388.190774380877,1173.098651852798,1448.4866566420906,1308.6642196930225,1455.0420059404087,1509.5715306206425C1461.5973552387268,1710.4788415482626,1442.507000990068,2051.5952551034406,1440,2160L 1920 2160 L 1920 -1080 Z" fill="url(&quot;#SvgjsLinearGradient1143&quot;)"></path></g><defs><linearGradient x1="0.1" y1="0" x2="0" y2="1" id="SvgjsLinearGradient1140"><stop stop-color="#84bd92" offset="0"></stop><stop stop-color="#84bd89" offset="0"></stop></linearGradient><linearGradient x1="0.1" y1="0" x2="0" y2="1" id="SvgjsLinearGradient1141"><stop stop-color="#539b65" offset="0"></stop><stop stop-color="#539b59" offset="0.25"></stop></linearGradient><linearGradient x1="0.1" y1="0" x2="0" y2="1" id="SvgjsLinearGradient1142"><stop stop-color="#366441" offset="0"></stop><stop stop-color="#366439" offset="0.5"></stop></linearGradient><linearGradient x1="0.1" y1="0" x2="0" y2="1" id="SvgjsLinearGradient1143"><stop stop-color="#192e1e" offset="0"></stop><stop stop-color="#192e1a" offset="0.75"></stop></linearGradient></defs></svg>